mtllib materials.mtl
v 0.1126366 -0.3511862 0.147556
v 0.1526675 -0.01803279 0.1755008
v 0.152496 -0.01866794 0.1695473
v -0.1593664 -0.08727598 -0.1157465
v -0.159095 -0.08627081 -0.1063268
v -0.1506084 -0.05485165 0.1881685
v -0.0543018 -0.3405886 0.1809298
v -0.07157671 -0.3779925 -0.08212671
v -0.03521824 0.1003999 0.05165434
v 0.14129 -0.05077517 -0.1283048
v 0.1086309 -0.3595673 -0.09797226
v -0.0002348423 -0.2489572 -0.1051925
v 0.03299063 -0.2385249 0.023835
v 0.01193309 -0.3162419 -0.09537572
v 0.0222193 -0.3152349 0.1680146
v -0.1349945 -0.0529561 0.1875164
v 0.142859 -0.08757889 -0.1589825
v 0.02579093 -0.253424 0.1609543
v -0.2839399 0.01926553 -0.2224548
v -0.2719735 0.02600932 -0.2245743
v -0.4304358 0.1717951 0.02031299
v -0.05496156 -0.3464717 -0.08045679
v -0.04495132 -0.3520615 -0.07808584
v -0.2245287 0.0606097 0.2445151
v -0.2125622 0.06735349 0.2423955
v -0.02827221 -0.3202608 0.1147138
v -0.03451103 -0.3208027 0.1163939
v -0.08263242 -0.3310931 0.02040753
v -0.07828981 -0.3373722 0.02040869
v -1.071979 0.2237558 0.02255449
v 0.2619675 0.08497119 0.2387744
v 0.2492202 0.09046865 0.239445
v 0.4083718 0.2293024 -0.009009629
v 0.08477712 -0.3165617 0.1215852
v 0.07562846 -0.3234649 0.1191947
v 0.2325218 0.07421541 -0.2327311
v 0.2197745 0.07971311 -0.2320605
v 0.06966269 -0.3124397 -0.07651949
v 0.07602906 -0.3124206 -0.07774776
v 0.1178789 -0.3078594 0.02156353
v 0.1142518 -0.3145666 0.0219453
v 1.039001 0.3541083 0.02282077
v 0.03733033 0.2940038 0.3540629
v 0.01403511 0.2133517 0.3245224
v -0.03509617 0.2038103 0.3205836
v -0.04512233 -0.2973872 0.1876966
v 0.005364776 -0.2556322 0.1364381
v -0.05512112 -0.2597141 0.1548188
v 0.07766849 -0.3237407 0.1722015
v 0.03774482 0.2127655 0.3310668
v 0.07444161 0.2104564 0.3252634
v -0.0111866 0.3674445 0.384816
v 0.02724451 0.2231694 0.2685181
v 0.04950923 -0.2711575 0.1674173
v 0.03314281 0.2182264 0.3291616
v 0.03736502 0.2178695 0.3325781
v 0.04641807 0.2035584 0.4784834
v 0.04947263 0.2109087 0.4710127
v -0.01622021 -0.2255387 0.1025165
v 0.09183168 0.2154262 0.3130563
v -0.004477561 -0.2172238 0.08658531
v 0.01682967 0.2142017 0.3328167
v 0.01662284 0.2124934 0.3323321
v 0.008465707 0.1451333 0.3132244
v 0.003980041 0.1157544 0.3021142
v -0.02120346 -0.02769923 0.2380499
v 0.01303172 0.2064877 0.3220601
v 0.006971717 0.1327956 0.3097246
v 0.02546102 0.2198986 0.323402
v 0.08049327 0.3646578 0.3618441
v 0.02146584 0.3526249 0.3054737
v -0.01530004 0.2412766 -0.3775344
v 0.007611573 0.1683557 -0.331953
v 0.007225871 0.1383597 -0.313538
v 0.06492853 -0.303802 -0.09350573
v 0.01387054 -0.2525953 -0.05238591
v 0.07456356 -0.2602141 -0.068859
v -0.05804664 -0.3266869 -0.07438563
v -0.01602095 0.1664071 -0.3385128
v -0.05278367 0.1652567 -0.3327821
v -0.01235747 0.2895013 -0.3998432
v -0.006241858 0.1893263 -0.2792682
v -0.02991915 -0.274176 -0.08006658
v -0.01143867 0.1721499 -0.3377047
v -0.01562113 0.1710981 -0.3410256
v 0.03507525 -0.2161951 -0.02504385
v -0.07031178 0.1725711 -0.3220401
v 0.02315259 -0.2048379 -0.01127082
v 0.004913807 0.167497 -0.3402783
v 0.005114198 0.1659232 -0.3394543
v 0.01301622 0.103868 -0.3069621
v 0.01735836 0.07736886 -0.2900619
v 0.04172701 -0.05002236 -0.1978933
v 0.00858295 0.1621374 -0.3281356
v 0.01446354 0.092502 -0.3010108
v -0.0038234 0.1749722 -0.3323177
v -0.1129872 0.6582382 -0.6096383
v -0.08634961 0.4962599 -0.5049159
v -0.04633743 0.3039974 -0.3340518
vn 0.9928892 -0.1179578 -0.01603135
vn 0 0 0
vn 0.5781189 0.8094234 -0.1030166
vn -0.03008291 -0.09456401 -0.9950641
vn -0.8325819 -0.5529502 0.03245855
vn 0.08138549 -0.6409258 0.7632762
vn 0.7862196 -0.6168926 0.03608466
vn -0.1698068 -0.7806077 -0.6015126
vn -0.12408 0.9870436 -0.1017307
vn -0.12408 0.9870436 -0.1017307
vn -0.12408 0.9870436 -0.1017307
vn -0.8356428 0.5492374 0.006267862
vn -0.03447588 0.6752032 0.7368256
vn -0.1336019 0.6903845 -0.7109991
vn -0.07293861 -0.1362804 -0.9879816
vn 0.9917729 -0.1274623 -0.01182983
vn 0.2555205 0.09513136 0.9621119
vn 0.05243489 -0.08972759 0.9945852
vn 0.05243675 -0.08972597 0.9945851
vn 0.9929161 -0.1187429 -0.004218794
vn 0.9956482 0.08094197 -0.04618395
vn -0.9836665 0.08864832 -0.1566584
vn 0.1984316 0.04207382 0.9792113
vn -0.1698068 -0.7806077 -0.6015126
vn 0.1315853 0.1049903 0.9857293
vn -0.09854759 -0.1610956 -0.9820064
vn 0.08138549 -0.6409258 0.7632762
vn -0.04421539 -0.1520543 -0.9873826
vn -0.4677901 0.6377407 -0.6119308
vn 0.0328963 -0.3523324 -0.9352967
vn 0.273806 -0.189496 0.9429325
vn -0.2947304 0.7203281 0.6279026
vn 0.7218881 0.5089873 -0.4688385
vn -0.8632234 -0.481258 0.1524345
vn 0.8038772 0.5658404 0.1833201
vn 0.06812906 0.8627804 -0.5009677
vn 0.07580426 0.9192692 0.3862616
vn -0.2163786 -0.9697033 0.1133839
vn -0.3646533 0.9274321 -0.08305297
vn 0.8038772 0.5658404 0.1833201
vn -0.4512329 -0.8773382 -0.1632999
vn 0.1459488 -0.9617732 0.231714
vn 0.4128603 0.6198322 0.6673487
vn -0.1048316 -0.382501 0.9179888
vn -0.1963492 -0.160229 -0.967354
vn 0.3386409 0.741601 -0.5790945
vn -0.7606512 0.4901952 0.4255802
vn 0.8760966 -0.4720358 -0.09816813
vn -0.790776 0.5676932 -0.2289058
vn -0.1141189 0.8458248 0.5211117
vn -0.0514177 0.9308975 -0.3616436
vn 0.2317554 -0.9645121 -0.1265149
vn 0.3501357 0.9259644 0.1414032
vn -0.790776 0.5676932 -0.2289058
vn 0.4431189 -0.8800305 0.1708571
vn -0.1200283 -0.9544623 -0.2731207
vn -0.1307109 -0.3074695 0.9425377
vn -0.1730138 -0.6732793 -0.718861
vn 0.234876 -0.259872 0.9366429
vn -0.6616929 0.3557574 -0.6599995
vn -0.6200095 -0.2648297 0.7385483
vn 0.03018082 -0.3690452 0.9289215
vn 0.3897877 -0.7311159 -0.559942
vn 0.2991882 -0.6112834 -0.7326794
vn -0.6651573 0.2767525 -0.693523
vn 0.5727192 0.1889391 -0.797681
vn 0.2111561 0.7940136 0.5700486
vn -0.08841195 -0.8548301 -0.5113207
vn -0.1254081 -0.7977251 -0.5898368
vn -0.8456507 0.2546857 -0.4690527
vn 0.8636937 0.1380424 -0.4847451
vn 0 0 0
vn 0.7846687 -0.2552691 0.5649185
vn -0.614669 -0.2659855 0.742586
vn 0.5201386 0.2030635 -0.829591
vn 0.1335681 -0.2722253 0.9529182
vn -0.01017837 -0.3363264 0.9416906
vn -0.03628097 -0.332734 0.9423226
vn -0.948131 0.02492211 0.3169018
vn -0.6254949 -0.2121651 0.7508278
vn 0.7846687 -0.2552691 0.5649185
vn -0.948131 0.02492211 0.3169018
vn 0.7866132 -0.3394001 0.515798
vn 0.6010171 -0.2067343 0.772036
vn -0.6409675 0.5261435 0.5588683
vn -0.851797 -0.4513737 -0.2659025
vn -0.9400951 0.1615835 0.3001871
vn -0.6153795 -0.215177 0.7582923
vn 0.1343541 -0.2690696 0.9537036
vn 0.2110304 -0.2334552 0.9491917
vn -0.1626397 0.7357755 0.657406
vn 0.6313239 0.2839049 -0.7216845
vn 0.8011676 -0.4454223 -0.3996622
vn 0.8516611 0.4514756 0.2661644
vn 0.6016129 -0.2166605 0.7688436
vn 0.5698677 0.2489909 -0.7831057
vn -0.9177322 0.07061632 -0.3908724
vn 0.9176422 -0.1719893 0.3582637
vn -0.02908715 0.523237 0.8516907
vn 0.1643341 -0.512796 0.8426356
vn -0.224121 -0.4452562 -0.8669007
vn 0.9766573 0.1869501 0.1057839
vn 0.6284063 -0.4082415 -0.6621515
vn 0.4538844 -0.396777 -0.7978453
vn -0.307966 -0.4501734 0.8381533
vn 0.975218 0.2091154 0.07225382
vn -0.5818421 0.3460423 0.7360126
vn -0.2041413 0.6611836 -0.721916
vn 0.0820571 -0.7328975 0.6753725
vn 0.1181678 -0.660957 0.7410617
vn 0.8402763 0.3462917 0.4171544
vn -0.8691915 0.2320585 0.4366406
vn 0 0 0
vn -0.7781866 -0.3662324 -0.5101955
vn 0.6231124 -0.4102039 -0.6659309
vn -0.5296284 0.3664562 0.7649861
vn -0.1226372 -0.460469 -0.8791636
vn 0 0 0
vn 0.0001408157 0.5231855 0.8522189
vn 0.9517555 -0.03822379 -0.3044675
vn 0.6340594 -0.3591616 -0.6848151
vn -0.7781866 -0.3662324 -0.5101955
vn 0.9517555 -0.03822379 -0.3044675
vn -0.7807419 -0.4386274 -0.4450261
vn -0.5955754 -0.4474111 -0.6671682
vn 0.9830434 0.04708282 -0.1772254
vn 0.09805742 -0.4227501 -0.9009258
vn 0.9435928 0.09896698 -0.3159717
vn 0.6240298 -0.3636467 -0.6916271
vn -0.1234124 -0.4575403 -0.880583
vn -0.03828705 -0.4928536 -0.8692697
vn -0.8622547 0.1998243 0.4653892
vn 0.6986865 0.465911 0.5429219
vn 0.8258785 0.4607348 0.3250356
vn -0.5927586 -0.369532 -0.7156001
vn -0.5781535 0.1782362 0.7962226
vn 0.83067 0.4482326 0.3302651
vn -0.9135078 -0.2429396 -0.3263186
usemtl mat8
f 3//1 2//1 1//1
f 8//2 7//2 6//2 5//2 4//2
f 10//3 9//3 3//3
f 12//4 4//4 10//4 11//4
f 11//5 1//5 13//5
f 13//6 8//6 14//6
f 8//7 13//7 7//7
f 13//8 1//8 15//8
f 5//9 6//9 16//9
f 16//10 2//10 3//10
f 10//11 4//11 5//11
f 16//12 9//12 5//12
f 3//13 9//13 16//13
f 5//14 9//14 10//14
f 12//15 8//15 4//15
f 1//16 11//16 17//16
f 18//17 15//17 1//17
f 16//18 6//18 18//18 1//18
f 2//19 16//19 1//19
f 1//20 17//20 3//20
f 3//21 17//21 10//21
f 10//22 17//22 11//22
f 18//23 6//23 7//23
f 7//24 13//24 15//24
f 7//25 15//25 18//25
f 12//26 11//26 14//26
f 11//27 13//27 14//27
f 12//28 14//28 8//28
f 21//29 20//29 19//29
f 20//30 23//30 22//30 19//30
f 27//31 26//31 25//31 24//31
f 25//32 21//32 24//32
f 25//33 26//33 29//33 28//33 21//33
f 19//34 22//34 27//34 24//34
f 28//35 23//35 20//35 21//35
f 19//36 30//36 21//36
f 21//37 30//37 24//37
f 24//38 30//38 19//38
f 22//39 29//39 27//39
f 28//40 29//40 23//40
f 23//41 29//41 22//41
f 27//42 29//42 26//42
f 33//43 32//43 31//43
f 32//44 35//44 34//44 31//44
f 39//45 38//45 37//45 36//45
f 37//46 33//46 36//46
f 37//47 38//47 41//47 40//47 33//47
f 31//48 34//48 39//48 36//48
f 40//49 35//49 32//49 33//49
f 31//50 42//50 33//50
f 33//51 42//51 36//51
f 36//52 42//52 31//52
f 34//53 41//53 39//53
f 40//54 41//54 35//54
f 35//55 41//55 34//55
f 39//56 41//56 38//56
f 45//57 44//57 43//57
f 48//58 47//58 46//58
f 51//59 50//59 49//59
f 53//60 45//60 52//60
f 50//61 56//61 55//61 54//61 49//61
f 43//62 52//62 45//62
f 58//63 57//63 43//63
f 59//64 54//64 47//64
f 48//65 45//65 53//65
f 53//66 60//66 54//66
f 61//67 59//67 47//67
f 54//68 59//68 61//68
f 48//69 61//69 47//69
f 53//70 61//70 48//70
f 54//71 61//71 53//71
f 44//72 67//72 66//72 65//72 64//72 63//72 62//72
f 63//73 64//73 68//73 46//73 47//73
f 55//74 69//74 47//74 54//74
f 60//75 49//75 54//75
f 51//76 56//76 50//76
f 45//77 48//77 66//77 67//77
f 45//78 67//78 44//78
f 65//79 66//79 48//79 46//79 68//79
f 56//80 43//80 55//80
f 69//81 62//81 63//81
f 65//82 68//82 64//82
f 69//83 43//83 62//83
f 51//84 60//84 70//84
f 71//85 58//85 70//85
f 43//86 57//86 52//86
f 62//87 43//87 44//87
f 55//88 43//88 69//88
f 51//89 43//89 56//89
f 70//90 43//90 51//90
f 71//91 57//91 58//91
f 71//92 70//92 60//92
f 43//93 70//93 58//93
f 71//94 52//94 57//94
f 60//95 51//95 49//95
f 71//96 60//96 53//96
f 52//97 71//97 53//97
f 47//98 69//98 63//98
f 74//99 73//99 72//99
f 77//100 76//100 75//100
f 80//101 79//101 78//101
f 82//102 74//102 81//102
f 79//103 85//103 84//103 83//103 78//103
f 72//104 81//104 74//104
f 86//105 83//105 76//105
f 77//106 74//106 82//106
f 82//107 87//107 83//107
f 88//108 86//108 76//108
f 83//109 86//109 88//109
f 77//110 88//110 76//110
f 82//111 88//111 77//111
f 83//112 88//112 82//112
f 73//113 94//113 93//113 92//113 91//113 90//113 89//113
f 90//114 91//114 95//114 75//114 76//114
f 84//115 96//115 76//115 83//115
f 87//116 78//116 83//116
f 80//117 85//117 79//117
f 74//118 77//118 93//118 94//118
f 74//119 94//119 73//119
f 92//120 93//120 77//120 75//120 95//120
f 85//121 72//121 84//121
f 96//122 89//122 90//122
f 92//123 95//123 91//123
f 96//124 72//124 89//124
f 80//125 87//125 97//125
f 99//126 98//126 97//126
f 72//127 98//127 81//127
f 89//128 72//128 73//128
f 84//129 72//129 96//129
f 80//130 72//130 85//130
f 97//131 72//131 80//131
f 99//132 97//132 87//132
f 72//133 97//133 98//133
f 99//134 81//134 98//134
f 87//135 80//135 78//135
f 99//136 87//136 82//136
f 81//137 99//137 82//137
f 76//138 96//138 90//138
